<svg xmlns="http://www.w3.org/2000/svg" viewBox="0 0 298 82"><defs><style>.cls-1{fill:none;stroke:#fff;stroke-linecap:round;stroke-linejoin:round;stroke-width:10px;}</style></defs><g id="Слой_2" data-name="Слой 2"><g id="Слой_1-2" data-name="Слой 1"><line class="cls-1" x1="15.22" y1="5" x2="15.22" y2="77"/><path class="cls-1" d="M66.78,5C55,10,45,18,33,23,23,28,15,34,5,39.16c5.86,1.8,2.54-1.41,0,0C27,46,49,53,71.26,59.5"/><path class="cls-1" d="M101.21,77C101,53,101,29,101,5c12.33,0,25.11,1,36.32,6.79,14,7.28-6.23,18-13.17,20.78a117.6,117.6,0,0,1-19,5.25c2.18.15,5.66.73,7.65-.46-2-1-5.57,0-7.65.46,9.45.65,18.94,1.37,28.24,3.3,4.28.89,14.14,1.84,15.46,7.3,2,8.11-15.32,12.88-20.37,14.86-10.13,4-20.41,7.37-30.81,10.49"/><path class="cls-1" d="M176.66,48.21c-3-17.82,4.45-40.72,16.22-43C205.3,2.77,221.7,23.45,221,43.83c-.56,15.84-11.56,33.91-23.74,33.15C185.91,76.27,178.55,59.57,176.66,48.21Z"/><path class="cls-1" d="M279.15,5c-16.61,3.92-29.65,16.15-31,29.36-1.8,17.28,15.76,42,44.87,42.64"/></g></g></svg>