<svg xmlns="http://www.w3.org/2000/svg" viewBox="0 0 298 55"><defs><style>.cls-1{fill:none;stroke:#fff;stroke-linecap:round;stroke-linejoin:round;stroke-width:10px;}</style></defs><g id="Слой_2" data-name="Слой 2"><g id="Слой_1-2" data-name="Слой 1"><line class="cls-1" x1="15.22" y1="5" x2="15.22" y2="50"/><path class="cls-1" d="M66.78,5C55,8.13,45,13.13,33,16.25c-10,3.13-18,6.88-28,10.1,5.86,1.12,2.54-.88,0,0C27,30.63,49,35,71.26,39.06"/><path class="cls-1" d="M101.21,50C101,35,101,20,101,5c12.33,0,25.11.61,36.32,4.25,14,4.54-6.23,11.26-13.17,13a174,174,0,0,1-19,3.28c2.18.1,5.66.46,7.65-.28-2-.64-5.57,0-7.65.28,9.45.41,18.94.86,28.24,2.06,4.28.56,14.14,1.16,15.46,4.57,2,5.07-15.32,8-20.37,9.28C118.39,43.9,108.11,46,97.71,48"/><path class="cls-1" d="M176.66,32c-3-11.14,4.45-25.45,16.22-26.89C205.3,3.61,221.7,16.53,221,29.27c-.56,9.9-11.56,21.19-23.74,20.72C185.91,49.54,178.55,39.1,176.66,32Z"/><path class="cls-1" d="M279.15,5c-16.61,2.45-29.65,10.1-31,18.35C246.33,34.15,263.89,49.62,293,50"/></g></g></svg>