<svg xmlns="http://www.w3.org/2000/svg" viewBox="0 0 1045.37 346.66"><defs><style>.cls-1{fill:#fff;}</style></defs><g id="Слой_2" data-name="Слой 2"><g id="Слой_5" data-name="Слой 5"><path class="cls-1" d="M878.94,50.31c-58.81,66.18-81.54,199.23-23.13,260,43.47,45.2,129,47.43,154.18,11.34,9.39-13.47,12.67-35.59,5.14-43.48-9.55-10-28.7,11-60.82,9.45-3.13-.15-43.62-2.85-65.95-38.76-23.62-38-8.28-83.13-5.14-91.7a108.54,108.54,0,0,1,34.26-47.27c7.77-6.4,31.13-25.64,60.81-23.64,25.15,1.7,32,17.09,45.4,11.35,17.08-7.3,27.69-41.39,18-65.23C1029.89,3.4,992.82.94,981.72.2,930.21-3.21,890.52,37.28,878.94,50.31Z"/><path class="cls-1" d="M551.72,184.71c-3.33,34.6-10.06,104.73,29.39,141.4,38.55,35.84,100.35,20.34,136.38-12.37,56.56-51.36,56-151,32.4-214.75C748.3,94.67,711.81-1.08,656.46,0,597.63,1.17,558.81,110.92,551.72,184.71Z"/><path class="cls-1" d="M442.13,164.55c19.22-12.74,49.11-32.53,61-65.06,2.23-6.08,10.64-29,3.77-48.79C490.9,4.63,393.85-18,338.14,18.18c-85,55.25-82.05,253-4.52,309,26.25,18.95,69.53,27.76,104.74,8.13,3-1.66,52.36-30.21,48.22-78.06-3.53-40.92-77.34-48.77-74.59-70.75C412.92,179,421.11,178.46,442.13,164.55Z"/><path class="cls-1" d="M248.65,49.45C245.32,29,221.41,10.65,200.43,11,143.51,12,101.87,150.91,97.2,148.91c-4.36-1.86,54.62-113.18,24.11-141.66C108.13-5,80.15-.11,61.78,10.27c-90.12,50.92-74.25,303.7,0,333.06,2.34.93,19.51,7.44,32.4-.77,37.4-23.81-.39-146.56,4.52-147.68s16.76,122,77.62,142.41c19.2,6.44,45.67,3.45,52.74-9.8,16.41-30.72-89.79-82.36-82.89-148.44C152.76,116.1,256.19,95.63,248.65,49.45Z"/></g></g></svg>