<svg xmlns="http://www.w3.org/2000/svg" viewBox="0 0 1693.96 863.93"><defs><style>.cls-1,.cls-3{fill:#fff;}.cls-1,.cls-2,.cls-4{stroke:#000;stroke-miterlimit:10;stroke-width:20px;}.cls-2{fill:none;}</style></defs><g id="Слой_2" data-name="Слой 2"><g id="Слой_5" data-name="Слой 5"><path d="M1288.78,132.48c-143.16,161.1-198.5,485-56.3,632.91C1338.3,875.44,1546.57,880.86,1607.81,793c22.87-32.8,30.85-86.66,12.51-105.86-23.24-24.36-69.84,26.85-148,23-7.63-.37-106.19-6.94-160.56-94.36-57.51-92.47-20.17-202.38-12.51-223.25,23.9-65.13,66.08-100.8,83.41-115.07,18.91-15.58,75.77-62.41,148-57.54,61.22,4.13,77.79,41.61,110.52,27.62,41.58-17.77,67.42-100.75,43.79-158.8-28.69-70.47-119-76.46-146-78.25C1413.59,2.17,1317,100.75,1288.78,132.48Z"/><path class="cls-1" d="M806.11,459.67c-8.09,84.23-24.5,255,71.54,344.23,93.86,87.25,244.32,49.53,332-30.12,137.68-125,136.23-367.46,78.88-522.8-3.88-10.5-92.72-243.61-227.47-241C917.87,12.85,823.37,280,806.11,459.67Z"/><path d="M838.62,411.24c46.8-31,119.58-79.19,148.59-158.37,5.42-14.8,25.89-70.68,9.17-118.78-39-112.16-275.3-167.3-410.91-79.18-207,134.5-199.75,616-11,752.26,63.91,46.14,169.25,67.58,255,19.79,7.26-4,127.46-73.54,117.4-190-8.61-99.61-188.29-118.73-181.61-172.23C767.52,446.47,787.47,445.12,838.62,411.24Z"/><path class="cls-2" d="M838.62,411.24c46.8-31,119.58-79.19,148.59-158.37,5.42-14.8,25.89-70.68,9.17-118.78-39-112.16-275.3-167.3-410.91-79.18-207,134.5-199.75,616-11,752.26,63.91,46.14,169.25,67.58,255,19.79,7.26-4,127.46-73.54,117.4-190-8.61-99.61-188.29-118.73-181.61-172.23C767.52,446.47,787.47,445.12,838.62,411.24Z"/><path class="cls-3" d="M615.33,130.38C607.22,80.62,549,35.94,497.93,36.83,359.37,39.24,258,377.38,246.62,372.52,236,368,379.59,97,305.32,27.65,273.23-2.29,205.12,9.73,160.4,35-59,159-20.35,774.35,160.4,845.83c5.7,2.25,47.5,18.12,78.88-1.87,91-58-.95-356.81,11-359.54,11.71-2.67,40.8,297,188.94,346.7,46.76,15.68,111.19,8.4,128.41-23.85,40-74.8-218.6-200.51-201.78-361.37C381.88,292.65,633.67,242.8,615.33,130.38Z"/><path class="cls-2" d="M615.33,130.38C607.22,80.62,549,35.94,497.93,36.83,359.37,39.24,258,377.38,246.62,372.52,236,368,379.59,97,305.32,27.65,273.23-2.29,205.12,9.73,160.4,35-59,159-20.35,774.35,160.4,845.83c5.7,2.25,47.5,18.12,78.88-1.87,91-58-.95-356.81,11-359.54,11.71-2.67,40.8,297,188.94,346.7,46.76,15.68,111.19,8.4,128.41-23.85,40-74.8-218.6-200.51-201.78-361.37C381.88,292.65,633.67,242.8,615.33,130.38Z"/><path class="cls-4" d="M1005.51,477.35c-12-12.18-45.26,18.27-70.57,3.62-12.77-7.38-21.2-24.9-17.5-39.64,4.5-17.95,25.34-25.2,27.31-25.86,29-9.62,51.36,15.43,62.69,5.88s-9.28-35.14,4.18-63.61c.62-1.33,11.8-24.2,30.41-25.61,18.45-1.39,36.58,18.9,41,38.43,5.71,25.1-12.24,44.14-4.61,51.11S1104,408.75,1130,412.6c18.48,2.74,38.31,17.1,38.49,32,.22,18-28.36,36-52.38,35.51-21.22-.43-31.38-15.11-39.73-9.47-6.54,4.42-5.47,20.08-3.06,51.23,1.89,24.55,3.8,29.13-.12,35.87-7.8,13.41-30.15,20.65-46.48,13.38-15.31-6.82-20.09-24.05-22.14-31.44C995.65,507.53,1015,487,1005.51,477.35Z"/><path class="cls-1" d="M725.07,696.65c-10.07-10.19-38.39,15.72-59.7,3.54-10.74-6.14-17.75-20.84-14.52-33.3,3.93-15.17,21.61-21.43,23.27-22,24.59-8.33,43.33,12.65,53,4.52s-7.6-29.57,4-53.67c.54-1.13,10.15-20.49,25.89-21.81s30.8,15.69,34.43,32.13c4.65,21.12-10.67,37.29-4.26,43.12s21.71-11.07,43.66-8c15.6,2.18,32.27,14.16,32.32,26.71.06,15.19-24.23,30.56-44.54,30.31-17.93-.21-26.43-12.53-33.53-7.71-5.56,3.77-4.76,17-2.95,43.22,1.43,20.69,3,24.53-.34,30.25-6.7,11.36-25.64,17.62-39.4,11.6-12.9-5.64-16.82-20.14-18.5-26.35C716.53,722.16,733.05,704.71,725.07,696.65Z"/><path class="cls-1" d="M745.33,227.19c-9.92-10.07-37.37,15.08-58.27,3-10.54-6.1-17.51-20.56-14.45-32.74,3.72-14.82,20.93-20.81,22.55-21.35,24-8,42.41,12.74,51.77,4.86s-7.66-29,3.45-52.53c.51-1.1,9.74-20,25.11-21.15s30.2,15.61,33.87,31.74c4.71,20.72-10.11,36.44-3.81,42.2s21.11-10.67,42.57-7.49c15.25,2.26,31.63,14.12,31.78,26.41.18,14.88-23.41,29.73-43.25,29.33-17.52-.36-25.92-12.48-32.81-7.82-5.39,3.65-4.51,16.58-2.53,42.3,1.57,20.27,3.15,24.05-.09,29.62-6.45,11.07-24.9,17.05-38.38,11-12.64-5.63-16.59-19.86-18.28-26C737.19,252.1,753.18,235.15,745.33,227.19Z"/></g></g></svg>