<svg xmlns="http://www.w3.org/2000/svg" viewBox="0 0 478 55"><defs><style>.cls-1{fill:none;stroke:#fff;stroke-linecap:round;stroke-linejoin:round;stroke-width:10px;}</style></defs><g id="Слой_2" data-name="Слой 2"><g id="Слой_1-2" data-name="Слой 1"><line class="cls-1" x1="14.72" y1="5" x2="14.72" y2="50"/><path class="cls-1" d="M63.74,5C52.54,8.13,43,13.13,31.62,16.25,22.11,19.38,14.51,23.13,5,26.35c5.57,1.12,2.42-.88,0,0C25.92,30.63,46.84,35,68,39.06"/><line class="cls-1" x1="140" y1="32" x2="77" y2="32"/><path class="cls-1" d="M140,47c-4.37-8-11.37-14.79-15.75-22.94-4.37-6.79-9.62-12.23-14.14-19-1.57,4,1.23,1.73,0,0-6,14.94-12.11,29.88-17.8,45"/><line class="cls-1" x1="180.5" y1="5" x2="180.5" y2="50"/><line class="cls-1" x1="149" y1="14" x2="212" y2="5"/><line class="cls-1" x1="284" y1="32" x2="221" y2="32"/><path class="cls-1" d="M284,47c-4.37-8-11.37-14.79-15.75-22.94-4.37-6.79-9.62-12.23-14.14-19-1.57,4,1.23,1.73,0,0-6,14.94-12.11,29.88-17.8,45"/><path class="cls-1" d="M347,47c-3.55-8-9.23-14.79-12.78-22.94-3.55-6.8-7.81-12.23-11.47-19-1.27,4,1,1.73,0,0-4.85,14.94-9.82,29.88-14.44,45"/><path class="cls-1" d="M365.66,32c-3-11.14,4.45-25.45,16.22-26.89C394.3,3.61,410.7,16.53,410,29.27c-.56,9.9-11.56,21.19-23.74,20.72C374.91,49.54,367.55,39.1,365.66,32Z"/><line class="cls-1" x1="441.5" y1="5" x2="441.5" y2="50"/><line class="cls-1" x1="437" y1="14" x2="473" y2="5"/></g></g></svg>