<svg xmlns="http://www.w3.org/2000/svg" viewBox="0 0 1352.88 887.07"><g id="Слой_2" data-name="Слой 2"><g id="Слой_1-2" data-name="Слой 1"><path fill="white" d="M152.41,209.51A1538.62,1538.62,0,0,1,55.72,57.45L21.84,101.52l143.59,54.07c23.46,8.84,46.86,17.87,70.41,26.49,24.79,9.07,53.29,16,79.27,7.53,29.44-9.59,54.3-35.1,53.81-67.58a30,30,0,0,0-58.93-8q-30.4,109.05-57.4,219t-50.5,220.71q-13.23,62.31-25.36,124.87c-2.88,14.82,3,29.31,17.37,35.39,12.43,5.25,31.45,1.42,37.46-12.27l24.15-55c3.36-7.66,5.34-14.72,3-23.12-1.92-7-7.3-14.5-13.79-17.93-7-3.68-15.4-5.52-23.12-3-6.93,2.24-14.86,6.8-17.93,13.78l-24.15,55,54.83,23.12Q256.15,583.46,281.17,473T334.7,253q16-61.65,33.15-123l-58.93-8a42.38,42.38,0,0,1-.28,5.51l1.07-8a38.36,38.36,0,0,1-2.14,7.8l3-7.16c-.54,1.24-1.1,2.46-1.76,3.65-.37.68-2.07,2.75-2.16,3.47.12-1,5.13-6.16,1.7-2.29-.93,1-1.9,2-2.92,3-.85.79-1.85,1.48-2.65,2.32,5.28-5.49,4-3,1.46-1.37a57.41,57.41,0,0,1-7.59,4l7.17-3a56.88,56.88,0,0,1-13.66,3.83l8-1.07a82.75,82.75,0,0,1-20.2-.2l8,1.07c-16.22-2.36-31.49-8.37-46.75-14.12L190.7,101.24,92.8,64.38l-55-20.72c-4.53-1.7-11.38-1.26-15.95,0A29.77,29.77,0,0,0,6.25,54.41,30.28,30.28,0,0,0,3.91,87.73a1536.87,1536.87,0,0,0,96.7,152.06c4.69,6.51,9.93,11.59,17.92,13.79,7.19,2,16.75,1.08,23.12-3,12.59-8.11,20.58-27.43,10.76-41Z"/><path d="M286.25,469.3c13.06-10.22,24.16-22.52,34.85-35.14,11.54-13.64,23-27.38,34.44-41.07q34.31-40.92,68.57-81.86c45.47-54.59,90.27-110.06,129.61-169.31,21.72-32.72,43.66-71.32,38.62-112.14-.66-5.31-1.33-10.41-4.1-15.14A29.74,29.74,0,0,0,573.9,2.36a30.25,30.25,0,0,0-32.77,6.21,116.69,116.69,0,0,0-31.81,53.78c-4.08,15.14,5.1,33.3,20.95,36.91s32.54-4.74,36.91-21a96.62,96.62,0,0,1,3.65-10.93l-3,7.17A88.79,88.79,0,0,1,576,59.32c.64-.94,1.51-2.71,2.38-3.36-1.45,1.08-4.32,5.34-1.07,1.58A90,90,0,0,1,583.55,51L532.34,29.78a88,88,0,0,1-.15,22.29l1.07-8a121.5,121.5,0,0,1-8,28.22l3-7.16c-11.57,27.32-29.56,51.94-46.62,76q-13.08,18.47-26.75,36.51c-2.27,3-4.56,6-6.85,9-1.14,1.48-2.41,2.93-3.45,4.49.33-.51,4.36-5.61,1.23-1.6q-7.55,9.67-15.16,19.29c-38.21,48-78.1,94.75-117.54,141.79-11.28,13.46-22.52,27-33.86,40.38-10.87,12.87-22.12,25.43-35.43,35.84-5.62,4.4-8.78,14.44-8.78,21.21,0,7.36,3.26,16.15,8.78,21.21,5.72,5.25,13.23,9.15,21.22,8.79,8.48-.38,14.58-3.6,21.21-8.79Z"/><path d="M307.28,363.88c1.72,3.93,3.43,7.87,5.1,11.83l-3-7.17a870.68,870.68,0,0,1,60.32,221.31l-1.07-8a870,870,0,0,1,7,148.73c-.62,15.7,14.24,30.7,30,30,16.78-.75,29.34-13.18,30-30A892.55,892.55,0,0,0,392.35,419.8c-9.58-29.3-20.87-58-33.27-86.21-2.82-6.42-11.47-12-17.92-13.78-7.19-2-16.75-1.09-23.12,3S306,333.11,304.25,340.76c-1.9,8.37-.4,15.32,3,23.12Z"/><path d="M574.69,103.78q-24,143.34-49.36,286.43-25.23,142.11-51.89,284-15.07,80.22-30.61,160.35c-2.87,14.82,2.95,29.31,17.37,35.39a30.11,30.11,0,0,0,37.46-12.27l25.74-42.13c8.19-13.41,3.37-33.58-10.76-41-14.61-7.72-32.3-3.55-41.05,10.76l-25.73,42.13,54.83,23.12q27.65-142.68,53.87-285.62,26-142,50.63-284.2,13.9-80.42,27.36-160.93c1.37-8.18,1.31-15.71-3-23.12-3.65-6.22-10.78-12.16-17.93-13.79-14.5-3.3-34.14,4.41-36.91,21Z"/><path d="M486.56,284.14a863.24,863.24,0,0,1,171.71,5.69l-8-1.07q34.59,4.69,68.72,12.12c20.2,4.42,41.24,8.59,60.43,16.49l-7.17-3c3,1.27,5.9,2.62,8.73,4.16q2.4,1.29,4.69,2.74c1,.66,6,4.34,1.31.69s0,.14.94,1c1.07,1,2,2.2,3.08,3.17,1.65,1.47-4.81-7.08-1.33-1.65a36.9,36.9,0,0,1,2.31,4.29l-3-7.17a34,34,0,0,1,2.32,8.34l-1.08-8a35.46,35.46,0,0,1-.05,7.91l1.07-8a35.63,35.63,0,0,1-2.06,7.43l3-7.16a39.89,39.89,0,0,1-3,5.7c-.7,1.07-3.28,4.48,0,.16s.47-.78-.27,0a58.12,58.12,0,0,1-4.47,4.27c-3.76,3.25,1.5-.67,2.24-1.61a12.69,12.69,0,0,1-2.89,2.07c-8,5.51-16.84,9.52-25.77,13.32l7.17-3c-97.64,41.11-204.3,50.45-305.54,79.2a656.3,656.3,0,0,0-89.88,32.64c-4.18,1.88-8.5,6.9-10.77,10.77a29.69,29.69,0,0,0-3.56,19.13c1.5,11.14,9.93,22.46,21.49,24.94,91.39,19.57,184.66,10.28,277.24,12.43a675.75,675.75,0,0,1,74.27,5.38l-8-1.08c31.73,4.37,63,11.88,92.57,24.29l-7.17-3q12.92,5.49,25.29,12.15l-6.07-47.12a160.21,160.21,0,0,1-15.67,16.66c-2.84,2.61-5.88,5.87-9.2,7.85l3.69-2.83-2.42,1.82q-2.44,1.78-4.93,3.51a225.4,225.4,0,0,1-40.32,21.65l7.17-3c-48.62,20.2-102.07,28.12-153.91,35.11l8-1.07c-70.6,9.43-141.77,13.64-212.92,16-72,2.39-144.12,3.35-216.18,4.78L64.55,615.62c-15.68.31-30.73,13.58-30,30,.72,16,13.19,30.33,30,30,113-2.24,226.08-3.48,339-7.2,55.58-1.82,111.16-4.74,166.49-10.42,53.67-5.52,108.07-12.33,160.42-25.74,50.88-13,103-35.48,137-77.12,6.26-7.66,9.6-15.15,8.25-25.2-1.2-9-6.09-17.48-14.32-21.91-53.28-28.69-112.4-40.48-172.32-44.41-57-3.74-114.22-.58-171.32-.91-32.31-.18-64.65-1.48-96.71-5.7l8,1.08c-12.14-1.64-24.21-3.69-36.19-6.26l7.17,54.83q5.63-2.52,11.31-4.93l-7.17,3c103.68-43.47,217.4-51.23,324.07-84.63,13.43-4.2,26.73-8.81,39.83-13.94,13.7-5.36,27.85-10.66,40.55-18.18,27.27-16.17,49.53-45.69,39.46-79-9-29.74-37.77-45.7-65.69-54.14s-57.1-14.43-85.94-19.36c-69.32-11.87-139.74-16.08-209.93-11.39-15.63,1.05-30.76,13.05-30,30,.69,15.36,13.23,31.13,30,30Z"/><path d="M747.27,284.11q123.65-7.91,247.6-8.57,35.32-.18,70.65.24l-28.93-38c-28.37,88.91-71.17,172.4-99.61,261.28-26,81.15-37.9,168.27-19.73,252.42a293.88,293.88,0,0,0,61.89,127.19l36.35-47.11L907.08,780.31l-54.21-25.64-27.1-12.82c-3.59-1.69-7.25-3.29-10.67-5.31-.91-.53-1.79-1.09-2.66-1.68q5.89,4.8,2.47,1.75-3.12-3.39,1.75,2.48a19.28,19.28,0,0,1-1.42-2.7l3,7.17a28.18,28.18,0,0,1-1.54-5.78l1.07,8a40.89,40.89,0,0,1,.21-9.25l-1.07,8c1.33-8.3,4.09-16.33,6.41-24.39q3.85-13.43,7.55-26.89,7.4-26.94,14.16-54,13.4-53.74,24.28-108.06c15-74.71,26.34-150.17,34.31-225.94q6.55-62.26,9.82-124.81c.82-15.7-14.39-30.7-30-30-17,.76-29.12,13.18-30,30q-5.06,96.2-17.83,191.75l1.07-8a2384.1,2384.1,0,0,1-46.06,245.05q-7.38,30.42-15.58,60.63-4,14.88-8.26,29.7c-2.58,9.07-5.81,18.15-7.47,27.45-2.64,14.72-2.47,30,6,43,7.16,11,17.65,17.73,29.28,23.22L853.3,821l131.91,62.37c13.66,6.47,29,4.76,38.7-7.72s7.39-27.78-2.35-39.39c-2-2.36-3.88-4.77-5.8-7.17,6.54,8.17-.27-.52-1.68-2.51q-5.05-7.12-9.55-14.61a256.19,256.19,0,0,1-16.1-31.58l3,7.16a307.38,307.38,0,0,1-20.83-77.68l1.08,8c-4.87-36.64-4.11-73.78.71-110.38l-1.07,8C984.63,517,1028.45,426.39,1064.88,335c10.68-26.79,20.8-53.79,29.57-81.27,6-18.88-10.13-37.75-28.93-38q-123.88-1.42-247.71,4.4-35.28,1.66-70.54,3.93c-15.63,1-30.76,13.08-30,30,.69,15.4,13.23,31.07,30,30Z"/><path d="M1278.73,474.49a1709.46,1709.46,0,0,0,52.58-260.41q4.5-36.3,7.38-72.76c1.76-22.1-27-38.21-45.14-25.9-53.87,36.6-99.44,82.16-138.86,133.79-37.13,48.64-67.41,102.27-92.56,158-13.59,30.11-26.12,60.81-37,92-12.09,34.63-21.63,71.24-21.36,108.18.25,34.49,9.77,69.23,29.48,97.76a201.35,201.35,0,0,0,71.07,63.53c63.23,33.48,139.39,31.84,205.41,7.25,9.6-3.58,19-7.59,28.37-11.85,6.44-2.94,12-11.37,13.78-17.92,2-7.19,1.09-16.75-3-23.12s-10.28-12-17.93-13.79c-8.31-1.89-15.4-.5-23.12,3q-4.82,2.19-9.69,4.26l7.17-3a288,288,0,0,1-71.39,19.73l8-1.07a233.18,233.18,0,0,1-59.49.36l8,1.07a192.67,192.67,0,0,1-49-13.14l7.17,3a184.92,184.92,0,0,1-27.19-14.39c-2-1.33-4.08-2.69-6.07-4.1-1.2-.84-2.38-1.71-3.56-2.57-4-2.87,4.79,3.83,2,1.58-4-3.21-7.88-6.49-11.6-10q-5.28-5-10.11-10.43c-1.76-2-3.44-4-5.13-6.1-2.28-2.75,4.47,6,1.59,2.07-.72-1-1.43-1.93-2.13-2.92a147.68,147.68,0,0,1-15.22-27l3,7.17a146,146,0,0,1-9.88-35.89l1.07,8a191.55,191.55,0,0,1,.39-50.4l-1.07,8c6.37-45.91,24.18-90.11,42.06-132.6l-3,7.17c19.58-46.35,42.39-91.4,69.52-133.82q10.32-16.14,21.48-31.72,5.11-7.11,10.4-14.09c1-1.27,1.94-2.52,2.89-3.8-5.55,7.47-2,2.64-.79,1q2.94-3.73,5.94-7.45a585.06,585.06,0,0,1,50.3-54.81q14.88-14.22,30.82-27.27c2.87-2.34,5.77-4.63,8.67-6.92,4.72-3.72-5.83,4.43-1,.81l3.81-2.87q8.94-6.66,18.17-12.91l-45.14-25.91q-3.6,45.09-9.6,89.94l1.07-8a1664.57,1664.57,0,0,1-49.29,235.26c-4.31,15.08,5.27,33.33,21,36.9,16,3.65,32.28-4.8,36.9-20.95Z"/></g></g></svg>