<svg xmlns="http://www.w3.org/2000/svg" viewBox="0 0 593.07 760.63"><defs><style>.cls-1{fill:#fff;}</style></defs><g id="Слой_2" data-name="Слой 2"><g id="Слой_1-2" data-name="Слой 1"><path class="cls-1" d="M152.41,209.51A1538.62,1538.62,0,0,1,55.72,57.45L21.84,101.52l143.59,54.07c23.46,8.84,46.86,17.87,70.41,26.49,24.79,9.07,53.29,16,79.27,7.53,29.44-9.59,54.3-35.1,53.81-67.58a30,30,0,0,0-58.93-8q-30.4,109.05-57.4,219t-50.5,220.71q-13.23,62.31-25.36,124.87c-2.88,14.82,3,29.31,17.37,35.39,12.43,5.25,31.45,1.42,37.46-12.27l24.15-55c3.36-7.66,5.34-14.72,3-23.12-1.92-7-7.3-14.5-13.79-17.93-7-3.68-15.4-5.52-23.12-3-6.93,2.24-14.86,6.8-17.93,13.78l-24.15,55,54.83,23.12Q256.15,583.46,281.17,473T334.7,253q16-61.65,33.15-123l-58.93-8a42.38,42.38,0,0,1-.28,5.51l1.07-8a38.36,38.36,0,0,1-2.14,7.8l3-7.16c-.54,1.24-1.1,2.46-1.76,3.65-.37.68-2.07,2.75-2.16,3.47.12-1,5.13-6.16,1.7-2.29-.93,1-1.9,2-2.92,3-.85.79-1.85,1.48-2.65,2.32,5.28-5.49,4-3,1.46-1.37a57.41,57.41,0,0,1-7.59,4l7.17-3a56.88,56.88,0,0,1-13.66,3.83l8-1.07a82.75,82.75,0,0,1-20.2-.2l8,1.07c-16.22-2.36-31.49-8.37-46.75-14.12L190.7,101.24,92.8,64.38l-55-20.72c-4.53-1.7-11.38-1.26-15.95,0A29.77,29.77,0,0,0,6.25,54.41,30.28,30.28,0,0,0,3.91,87.73a1536.87,1536.87,0,0,0,96.7,152.06c4.69,6.51,9.93,11.59,17.92,13.79,7.19,2,16.75,1.08,23.12-3,12.59-8.11,20.58-27.43,10.76-41Z"/><path class="cls-1" d="M286.25,469.3c13.06-10.22,24.16-22.52,34.85-35.14,11.54-13.64,23-27.38,34.44-41.07q34.31-40.92,68.57-81.86c45.47-54.59,90.27-110.06,129.61-169.31,21.72-32.72,43.66-71.32,38.62-112.14-.66-5.31-1.33-10.41-4.1-15.14A29.74,29.74,0,0,0,573.9,2.36a30.25,30.25,0,0,0-32.77,6.21,116.69,116.69,0,0,0-31.81,53.78c-4.08,15.14,5.1,33.3,20.95,36.91s32.54-4.74,36.91-21a96.62,96.62,0,0,1,3.65-10.93l-3,7.17A88.79,88.79,0,0,1,576,59.32c.64-.94,1.51-2.71,2.38-3.36-1.45,1.08-4.32,5.34-1.07,1.58A90,90,0,0,1,583.55,51L532.34,29.78a88,88,0,0,1-.15,22.29l1.07-8a121.5,121.5,0,0,1-8,28.22l3-7.16c-11.57,27.32-29.56,51.94-46.62,76q-13.08,18.47-26.75,36.51c-2.27,3-4.56,6-6.85,9-1.14,1.48-2.41,2.93-3.45,4.49.33-.51,4.36-5.61,1.23-1.6q-7.55,9.67-15.16,19.29c-38.21,48-78.1,94.75-117.54,141.79-11.28,13.46-22.52,27-33.86,40.38-10.87,12.87-22.12,25.43-35.43,35.84-5.62,4.4-8.78,14.44-8.78,21.21,0,7.36,3.26,16.15,8.78,21.21,5.72,5.25,13.23,9.15,21.22,8.79,8.48-.38,14.58-3.6,21.21-8.79Z"/><path class="cls-1" d="M307.28,363.88c1.72,3.93,3.43,7.87,5.1,11.83l-3-7.17a870.68,870.68,0,0,1,60.32,221.31l-1.07-8a870,870,0,0,1,7,148.73c-.62,15.7,14.24,30.7,30,30,16.78-.75,29.34-13.18,30-30A892.55,892.55,0,0,0,392.35,419.8c-9.58-29.3-20.87-58-33.27-86.21-2.82-6.42-11.47-12-17.92-13.78-7.19-2-16.75-1.09-23.12,3S306,333.11,304.25,340.76c-1.9,8.37-.4,15.32,3,23.12Z"/></g></g></svg>