<svg xmlns="http://www.w3.org/2000/svg" viewBox="0 0 1108.93 354.76"><defs><style>.cls-1{fill:#fff;}</style></defs><g id="Слой_2" data-name="Слой 2"><g id="Слой_1-2" data-name="Слой 1"><g id="Слой_2-2" data-name="Слой 2"><g id="Слой_1-2-2" data-name="Слой 1-2"><path class="cls-1" d="M68.43,94.06A691,691,0,0,1,25,25.79L9.81,45.58,74.28,69.85c10.53,4,21,8,31.61,11.89,11.13,4.08,23.92,7.19,35.59,3.39,13.22-4.31,24.38-15.76,24.16-30.35a13.47,13.47,0,0,0-26.46-3.59q-13.65,49-25.77,98.33T90.74,248.61q-5.94,28-11.39,56.06c-1.29,6.66,1.35,13.16,7.8,15.89,5.58,2.36,14.12.64,16.82-5.51l10.84-24.69c1.51-3.44,2.4-6.61,1.35-10.38a13.72,13.72,0,0,0-6.2-8.05c-3.14-1.65-6.91-2.48-10.38-1.35-3.11,1-6.67,3.06-8,6.19L80.69,301.46l24.62,10.38Q115,262,126.24,212.36t24-98.77q7.18-27.69,14.89-55.23L138.7,54.77a18.5,18.5,0,0,1-.13,2.47l.48-3.59a16.36,16.36,0,0,1-1,3.5l1.35-3.21a17.62,17.62,0,0,1-.79,1.64,8.93,8.93,0,0,0-1,1.56c0-.45,2.3-2.77.76-1-.41.45-.85.9-1.31,1.34s-.83.67-1.19,1c2.37-2.47,1.8-1.35.66-.62a27,27,0,0,1-3.41,1.8l3.22-1.35a25.78,25.78,0,0,1-6.13,1.72l3.59-.48a37.2,37.2,0,0,1-9.07-.09l3.59.48c-7.28-1.06-14.14-3.76-21-6.34L85.62,45.45,41.67,28.9,17,19.6a13,13,0,0,0-7.16,0,13.34,13.34,0,0,0-7,4.82,13.59,13.59,0,0,0-1,15,688.7,688.7,0,0,0,43.41,68.27c2.11,2.93,4.46,5.21,8,6.2A13.82,13.82,0,0,0,63.6,112.5c5.65-3.64,9.24-12.32,4.83-18.41Z"/><path class="cls-1" d="M128.52,210.7a109.09,109.09,0,0,0,15.65-15.78c5.18-6.12,10.32-12.29,15.46-18.44l30.79-36.75c20.41-24.51,40.53-49.41,58.19-76,9.75-14.69,19.6-32,17.34-50.34a17.1,17.1,0,0,0-1.84-6.8,13.35,13.35,0,0,0-6.44-5.52A13.59,13.59,0,0,0,243,3.84,52.4,52.4,0,0,0,228.67,28c-1.83,6.8,2.29,15,9.41,16.57s14.61-2.13,16.57-9.43a44.87,44.87,0,0,1,1.64-4.91l-1.35,3.22a40.28,40.28,0,0,1,3.67-6.81,7.31,7.31,0,0,1,1.07-1.51c-.65.48-1.94,2.4-.48.71a38.89,38.89,0,0,1,2.8-2.94l-23-9.52a39.38,39.38,0,0,1-.07,10l.48-3.59a54.71,54.71,0,0,1-3.59,12.67l1.35-3.21C232,41.5,223.91,52.56,216.25,63.36q-5.88,8.3-12,16.39c-1,1.35-2.05,2.69-3.08,4-.51.67-1.08,1.32-1.55,2,.15-.23,2-2.52.55-.72q-3.39,4.34-6.8,8.66c-17.16,21.55-35.07,42.54-52.78,63.66-5.06,6-10.11,12.12-15.2,18.13-4.88,5.78-9.93,11.42-15.9,16.09-2.53,2-4,6.48-4,9.52a13.71,13.71,0,0,0,4,9.53,13.57,13.57,0,0,0,9.52,3.94c3.81-.17,6.55-1.61,9.53-3.94Z"/><path class="cls-1" d="M138,163.37q1.17,2.64,2.29,5.31l-1.34-3.22A391,391,0,0,1,166,264.82l-.48-3.59A391.31,391.31,0,0,1,168.65,328c-.28,7.05,6.39,13.78,13.47,13.47A13.76,13.76,0,0,0,195.59,328a401,401,0,0,0-19.43-139.54c-4.3-13.15-9.37-26-14.94-38.7-1.27-2.88-5.15-5.39-8.05-6.19A13.46,13.46,0,0,0,136.6,153c-.85,3.76-.18,6.88,1.35,10.38Z"/><path class="cls-1" d="M454.76,9.71Q444,74.06,432.6,138.31q-11.33,63.81-23.3,127.51-6.76,36-13.74,72c-1.29,6.66,1.32,13.16,7.8,15.89a13.52,13.52,0,0,0,16.82-5.51l11.55-18.91c3.68-6,1.52-15.08-4.83-18.41a13.74,13.74,0,0,0-18.43,4.83l-11.55,18.92L421.54,345q12.4-64.06,24.18-128.24Q457.41,153,468.46,89.16q6.24-36.1,12.28-72.25c.61-3.67.59-7.06-1.35-10.38A13.76,13.76,0,0,0,471.34.34c-6.51-1.49-15.33,2-16.57,9.42Z"/><path class="cls-1" d="M415.19,90.69a387.42,387.42,0,0,1,77.1,2.55l-3.59-.48q15.53,2.11,30.85,5.44c9.07,2,18.51,3.86,27.13,7.41l-3.22-1.35c1.35.57,2.65,1.18,3.92,1.87.72.38,1.42.79,2.11,1.23.45.29,2.69,2,.58.31s0,.06.43.45.89,1,1.38,1.42c.74.66-2.16-3.18-.6-.74a15.58,15.58,0,0,1,1,1.93L551,107.51a14.75,14.75,0,0,1,1,3.74l-.48-3.59a16.21,16.21,0,0,1,0,3.55l.48-3.59a16,16,0,0,1-.93,3.33l1.35-3.21a17.87,17.87,0,0,1-1.35,2.56c-.31.48-1.47,2,0,.07s.21-.35-.12,0a22.79,22.79,0,0,1-2,1.92c-1.68,1.46.68-.3,1-.72a5.67,5.67,0,0,1-1.3.92,64.69,64.69,0,0,1-11.57,6l3.22-1.35c-43.84,18.46-91.72,22.65-137.18,35.56a293.73,293.73,0,0,0-40.35,14.65,12.85,12.85,0,0,0-4.84,4.84,13.38,13.38,0,0,0-1.6,8.59c.68,5,4.46,10.08,9.65,11.19,41,8.79,82.91,4.62,124.48,5.58A304.71,304.71,0,0,1,523.79,200l-3.59-.49a165.65,165.65,0,0,1,41.56,10.91L558.54,209c3.87,1.65,7.65,3.46,11.36,5.46l-2.73-21.16a71,71,0,0,1-7,7.48,28.23,28.23,0,0,1-4.13,3.53l1.65-1.27-1.08.81c-.73.54-1.47,1.06-2.22,1.58a101.06,101.06,0,0,1-18.1,9.72l3.22-1.35c-21.83,9.07-45.83,12.63-69.1,15.77l3.59-.48c-31.7,4.23-63.65,6.12-95.6,7.18-32.32,1.07-64.7,1.5-97.06,2.15l-55.59,1.06c-7,.14-13.79,6.1-13.47,13.47.33,7.19,5.92,13.62,13.47,13.47,50.74-1,101.51-1.56,152.2-3.23,25-.82,49.91-2.13,74.75-4.68,24.1-2.48,48.52-5.53,72-11.56,22.84-5.83,46.24-15.92,61.51-34.62,2.81-3.44,4.31-6.8,3.7-11.31a12.93,12.93,0,0,0-6.43-9.84C559.56,178.33,533,173,506.12,171.27c-25.6-1.68-51.29-.26-76.92-.41a346.09,346.09,0,0,1-43.42-2.56l3.59.49c-5.45-.74-10.87-1.66-16.25-2.81l3.22,24.61c1.68-.75,3.38-1.49,5.08-2.21l-3.22,1.35c46.55-19.52,97.61-23,145.5-38,6-1.89,12-3.95,17.88-6.26,6.15-2.4,12.5-4.78,18.21-8.16C572,130.05,582,116.8,577.5,101.84c-4-13.35-17-20.52-29.49-24.31a320,320,0,0,0-38.59-8.69,400,400,0,0,0-94.25-5.11c-7,.47-13.81,5.86-13.47,13.47.31,6.89,5.94,14,13.47,13.47Z"/><path class="cls-1" d="M714.42,65q55.51-3.54,111.17-3.84,15.85-.09,31.72.1l-13-17.06c-12.74,39.92-32,77.41-44.72,117.31-11.67,36.44-17,75.55-8.86,113.33a132,132,0,0,0,27.79,57.11l16.32-21.15-48.68-23-24.33-11.52-12.17-5.75c-1.61-.76-3.26-1.48-4.79-2.39-.41-.23-.81-.49-1.2-.75q2.66,2.16,1.11.79-1.39-1.53.79,1.11a8.24,8.24,0,0,1-.64-1.21l1.35,3.22a12.31,12.31,0,0,1-.69-2.6l.48,3.59a18,18,0,0,1,.09-4.15l-.48,3.59a94.31,94.31,0,0,1,2.88-10.95q1.73-6,3.39-12.07,3.31-12.1,6.36-24.25,6-24.12,10.9-48.51C776,142.38,781,108.5,784.62,74.49q2.94-28,4.41-56c.37-7-6.46-13.78-13.47-13.47a13.76,13.76,0,0,0-13.47,13.47q-2.26,43.19-8,86.09l.48-3.59a1072.65,1072.65,0,0,1-20.68,110q-3.32,13.65-7,27.22-1.78,6.67-3.71,13.34c-1.15,4.07-2.6,8.14-3.35,12.32-1.19,6.61-1.11,13.47,2.69,19.31,3.22,4.93,7.93,8,13.15,10.42L762,306l59.22,28c6.14,2.9,13,2.13,17.38-3.47s3.32-12.47-1.06-17.68c-.89-1.06-1.74-2.15-2.6-3.22,2.94,3.66-.12-.24-.75-1.13q-2.28-3.19-4.29-6.56a113.89,113.89,0,0,1-7.23-14.18l1.35,3.22a137.94,137.94,0,0,1-9.36-34.88l.49,3.59a188.61,188.61,0,0,1,.32-49.56l-.48,3.6c6-44.22,25.65-84.91,42-125.94,4.8-12,9.34-24.15,13.28-36.49,2.69-8.47-4.55-16.94-13-17.06q-55.62-.63-111.22,2Q730.26,37,714.42,38c-7,.45-13.81,5.88-13.46,13.47.3,6.92,5.93,14,13.46,13.47Z"/><path class="cls-1" d="M1075.63,174.48a766.91,766.91,0,0,0,23.61-116.92q2-16.31,3.31-32.67c.79-9.92-12.12-17.15-20.26-11.63-24.19,16.44-44.65,36.89-62.35,60.07-16.67,21.84-30.26,45.92-41.55,70.94-6.11,13.52-11.73,27.3-16.62,41.31-5.42,15.54-9.71,32-9.59,48.57.12,15.48,4.39,31.08,13.24,43.89a90.44,90.44,0,0,0,31.91,28.52c28.39,15,62.58,14.3,92.22,3.26,4.31-1.61,8.53-3.41,12.74-5.32,2.89-1.32,5.39-5.11,6.19-8.05a13.46,13.46,0,0,0-9.4-16.57,15.41,15.41,0,0,0-10.38,1.35q-2.16,1-4.35,1.91l3.22-1.35a129.28,129.28,0,0,1-32,8.86l3.59-.48a104.73,104.73,0,0,1-26.71.16l3.59.48a86.48,86.48,0,0,1-22-5.9l3.22,1.35A82.81,82.81,0,0,1,1005,279.8c-.9-.6-1.83-1.21-2.72-1.84-.54-.38-1.07-.77-1.6-1.16-1.8-1.29,2.15,1.72.9.71-1.8-1.44-3.54-2.91-5.21-4.49s-3.1-3-4.54-4.68c-.79-.9-1.55-1.8-2.3-2.74-1-1.23,2,2.7.71.93-.32-.45-.64-.87-1-1.31a66.87,66.87,0,0,1-6.83-12.12l1.35,3.22a65.81,65.81,0,0,1-4.44-16.12l.48,3.59a85.66,85.66,0,0,1,.18-22.62l-.48,3.59c2.86-20.61,10.85-40.46,18.88-59.54l-1.35,3.22a399.85,399.85,0,0,1,31.22-60.08q4.62-7.24,9.64-14.24,2.29-3.2,4.67-6.33c.45-.57.87-1.13,1.3-1.7-2.5,3.35-.9,1.18-.36.47.88-1.12,1.77-2.23,2.67-3.35a262.87,262.87,0,0,1,22.58-24.6q6.69-6.39,13.84-12.25,1.93-1.57,3.89-3.1c2.12-1.67-2.62,2-.45.36l1.71-1.29q4-3,8.16-5.8L1075.67,24.9q-1.61,20.25-4.31,40.38l.48-3.59a746,746,0,0,1-22.13,105.63c-1.93,6.77,2.37,15,9.43,16.56s14.5-2.15,16.57-9.4Z"/></g></g></g></g></svg>