<svg xmlns="http://www.w3.org/2000/svg" viewBox="0 0 378.49 736.74"><defs><style>.cls-1{fill:#fff;}</style></defs><g id="Слой_2" data-name="Слой 2"><g id="Слой_1-2" data-name="Слой 1"><path class="cls-1" d="M30,133.78q123.64-7.92,247.6-8.57,35.33-.18,70.65.23l-28.93-38c-28.38,88.9-71.17,172.4-99.62,261.27C193.75,429.9,181.83,517,200,601.17a294,294,0,0,0,61.88,127.19l36.36-47.12L189.83,630l-54.2-25.63-27.11-12.82c-3.58-1.7-7.24-3.3-10.66-5.31-.91-.53-1.8-1.09-2.66-1.69q5.89,4.82,2.46,1.75-3.1-3.37,1.76,2.48A18.69,18.69,0,0,1,98,586.06l3,7.16a28.08,28.08,0,0,1-1.54-5.77l1.07,8a40.23,40.23,0,0,1,.21-9.24l-1.07,8c1.32-8.3,4.09-16.33,6.4-24.39q3.85-13.43,7.56-26.89,7.39-26.93,14.15-54,13.41-53.73,24.29-108,22.44-112.06,34.31-225.95Q193,92.58,196.21,30c.83-15.69-14.38-30.7-30-30-17,.76-29.11,13.19-30,30q-5,96.2-17.82,191.76l1.07-8A2385.78,2385.78,0,0,1,73.4,458.85Q66,489.27,57.82,519.49q-4,14.87-8.26,29.69c-2.59,9.08-5.82,18.15-7.48,27.46-2.63,14.72-2.46,30,6,43,7.16,11.05,17.65,17.72,29.28,23.22l58.72,27.77L268,733.05c13.67,6.46,29.06,4.75,38.7-7.73s7.39-27.77-2.34-39.39c-2-2.36-3.88-4.76-5.81-7.16,6.54,8.16-.27-.52-1.68-2.52q-5-7.12-9.55-14.6a259.13,259.13,0,0,1-16.1-31.59l3,7.17a307,307,0,0,1-20.83-77.69l1.07,8c-4.87-36.64-4.1-73.78.72-110.38l-1.07,8c13.28-98.46,57.11-189.06,93.54-280.43,10.68-26.78,20.8-53.79,29.57-81.26,6-18.89-10.13-37.76-28.93-38Q224.4,64,100.57,69.84,65.29,71.51,30,73.78c-15.63,1-30.76,13.08-30,30,.69,15.39,13.22,31.07,30,30Z"/></g></g></svg>