<svg xmlns="http://www.w3.org/2000/svg" viewBox="0 0 349.13 682.96"><defs><style>.cls-1{fill:#fff;}</style></defs><g id="Слой_2" data-name="Слой 2"><g id="Слой_1-2" data-name="Слой 1"><path class="cls-1" d="M275,363.33a1710.65,1710.65,0,0,0,52.57-260.41q4.5-36.28,7.38-72.76c1.77-22.1-27-38.2-45.14-25.9-53.87,36.6-99.43,82.16-138.85,133.8-37.13,48.63-67.42,102.26-92.56,158-13.6,30.11-26.12,60.81-37,92C9.28,422.66-.27,459.27,0,496.21.26,530.7,9.77,565.44,29.49,594a201.4,201.4,0,0,0,71.06,63.53C163.78,691,240,689.35,306,664.75c9.6-3.57,19-7.58,28.36-11.84,6.44-2.95,12-11.38,13.79-17.93,2-7.18,1.08-16.75-3-23.12s-10.28-12-17.93-13.79c-8.31-1.89-15.41-.5-23.12,3q-4.82,2.21-9.69,4.26l7.17-3a288,288,0,0,1-71.4,19.73l8-1.07a233.26,233.26,0,0,1-59.5.36l8,1.07a192.25,192.25,0,0,1-49-13.14l7.16,3a184.37,184.37,0,0,1-27.18-14.39c-2-1.32-4.08-2.69-6.08-4.09q-1.78-1.27-3.55-2.58c-4-2.87,4.79,3.83,2,1.58-4-3.2-7.87-6.49-11.59-10q-5.28-5-10.11-10.43c-1.77-2-3.44-4-5.14-6.09-2.28-2.76,4.47,6,1.59,2.07-.71-1-1.43-1.94-2.13-2.92a148,148,0,0,1-15.21-27l3,7.16a146.48,146.48,0,0,1-9.88-35.89l1.08,8a191.62,191.62,0,0,1,.38-50.41l-1.07,8c6.38-45.91,24.19-90.11,42.07-132.59l-3,7.16c19.59-46.35,42.4-91.4,69.52-133.81q10.34-16.14,21.49-31.73,5.1-7.11,10.39-14.09c1-1.27,1.95-2.52,2.9-3.79-5.56,7.46-2,2.63-.79,1.05q2.94-3.75,5.94-7.46a585,585,0,0,1,50.3-54.81Q274.53,91,290.47,78c2.86-2.34,5.76-4.64,8.67-6.93,4.72-3.72-5.84,4.43-1,.81,1.27-.95,2.53-1.91,3.81-2.86q8.93-6.67,18.17-12.92L274.93,30.16q-3.58,45.09-9.6,89.94l1.08-8a1667.09,1667.09,0,0,1-49.29,235.26c-4.32,15.08,5.27,33.33,20.95,36.91,16,3.64,32.28-4.81,36.91-21Z"/></g></g></svg>