<svg xmlns="http://www.w3.org/2000/svg" viewBox="0 0 1604.6 582.59"><defs><style>.cls-1{fill:#81b1a6;}</style></defs><g id="Слой_2" data-name="Слой 2"><g id="Слой_7" data-name="Слой 7"><polygon class="cls-1" points="80.14 288.43 80.14 209.15 342.06 484.55 342.06 563.82 80.14 288.43"/><path d="M87.64,227.92,334.56,487.55v57.51L87.64,285.43V227.92m-15-37.54v101L349.56,582.59v-101L72.64,190.38Z"/><polygon class="cls-1" points="17.04 283.92 262.96 7.5 332.85 7.5 86.94 283.92 17.04 283.92"/><path d="M316.14,15,83.57,276.42H33.75L266.33,15h49.81M349.56,0h-90L.33,291.42h90L349.56,0Z"/><rect class="cls-1" x="7.5" y="7.75" width="74.61" height="567.34"/><path d="M74.61,15.25V567.59H15V15.25H74.61m15-15H0V582.59H89.61V.25Z"/><path class="cls-1" d="M1353.48,575.09c-23.27,0-45.15-7.54-61.61-21.24-16.07-13.37-24.92-31-24.92-49.49V78.49c0-18.54,8.85-36.12,24.92-49.49,16.47-13.7,38.34-21.25,61.61-21.25H1597.1V62H1418.68c-42.52,0-77.12,30.11-77.12,67.13V453.7c0,37,34.6,67.13,77.12,67.13H1597.1v54.26Z"/><path d="M1589.6,15.25V54.52H1418.68c-46.66,0-84.62,33.48-84.62,74.63V453.7c0,41.15,38,74.63,84.62,74.63H1589.6v39.26H1353.48c-21.52,0-41.69-6.93-56.81-19.51-14.33-11.92-22.22-27.45-22.22-43.72V78.49c0-16.28,7.89-31.8,22.22-43.72,15.12-12.59,35.29-19.52,56.81-19.52H1589.6m15-15H1353.48c-51.72,0-94,35.21-94,78.24V504.36c0,43,42.31,78.23,94,78.23H1604.6V513.33H1418.68c-38.29,0-69.62-26.84-69.62-59.63V129.15c0-32.8,31.33-59.63,69.62-59.63H1604.6V.25Z"/><path d="M942.11,388.32c-11,0-22.14-9.66-30.64-26.5-9.46-18.71-14.66-43.76-14.66-70.52s5.2-51.82,14.66-70.53c8.5-16.84,19.67-26.5,30.64-26.5s22.14,9.66,30.65,26.5c9.45,18.71,14.66,43.76,14.66,70.53s-5.21,51.81-14.66,70.52C964.25,378.66,953.08,388.32,942.11,388.32Z"/><path d="M942.11,201.77c7.92,0,16.87,8.37,23.95,22.38,8.81,17.43,13.86,41.9,13.86,67.15s-5,49.71-13.86,67.14c-7.08,14-16,22.38-23.95,22.38s-16.87-8.37-24-22.38c-8.8-17.43-13.85-41.9-13.85-67.14s5.05-49.72,13.85-67.15c7.08-14,16-22.38,24-22.38m0-15c-29.16,0-52.8,46.8-52.8,104.53S913,395.82,942.11,395.82,994.92,349,994.92,291.3s-23.64-104.53-52.81-104.53Z"/><path class="cls-1" d="M941.23,471.85c-39.62-.13-78.51-9-115.58-26.25-30.27-14.12-59.54-33.94-87-58.91a448.83,448.83,0,0,1-51.6-55.9,415.12,415.12,0,0,0,43,26.44c64.36,34.41,135.39,51.93,211.12,52.07h.91c75.95,0,147.23-17.5,211.86-52a415.67,415.67,0,0,0,43.17-26.5,449.42,449.42,0,0,1-51.75,56c-27.56,25.05-56.94,44.9-87.31,59-37.21,17.29-76.23,26.06-116,26.06Zm-254.16-220a448.21,448.21,0,0,1,51.76-56c27.56-25,56.93-44.9,87.31-59,37.21-17.29,76.23-26.06,116-26.06H943c39.63.12,78.52,9,115.59,26.24,30.27,14.12,59.54,33.94,87,58.91a449.54,449.54,0,0,1,51.6,55.9,416,416,0,0,0-43-26.43C1089.78,191,1018.75,173.43,943,173.29h-.92c-75.93,0-147.21,17.5-211.85,52A416.67,416.67,0,0,0,687.07,251.83Z"/><path d="M942.1,118.24H943c38.53.12,76.36,8.71,112.44,25.54,29.58,13.8,58.22,33.2,85.11,57.66,6.63,6,12.87,12.12,18.71,18.13l-1.55-.83c-65.46-35-137.67-52.82-214.64-53h-.93c-77.18,0-149.64,17.8-215.38,52.91-.58.3-1.15.61-1.72.92,5.88-6.06,12.17-12.18,18.86-18.26,27-24.53,55.74-44,85.43-57.76,36.21-16.83,74.16-25.36,112.8-25.36M1159.18,363c-5.88,6.05-12.16,12.16-18.84,18.22-27,24.54-55.74,44-85.42,57.77-36.22,16.83-74.17,25.36-112.81,25.36h-.85c-38.53-.13-76.36-8.72-112.44-25.55-29.59-13.79-58.22-33.19-85.11-57.66-6.64-6-12.88-12.11-18.72-18.13l1.55.83c65.46,35,137.68,52.82,214.64,53h.93c77.19,0,149.66-17.8,215.4-52.9l1.67-.9M942.11,103.24c-178.17,0-280.31,169.38-291.17,188.06h0c10.86-11,113-110.51,291.17-110.51H943c177.61.33,279.21,99.34,290.26,110.51-11-19-112.65-187.49-290.27-188ZM1233.28,291.3c-10.86,11-113,110.5-291.17,110.5h-.9C763.59,401.47,662,302.47,650.94,291.3c11.06,19,112.65,187.48,290.27,188.05h.9c178.16,0,280.31-169.38,291.17-188Z"/><path class="cls-1" d="M451.85,575.09c-36.41,0-58.32-23.81-70.28-43.79-15.8-26.38-24.51-62.07-24.51-100.5s8.71-74.12,24.51-100.5c12-20,33.87-43.79,70.28-43.79,64.59,0,125.21,15.4,170.69,43.35,44.33,27.25,68.75,63.1,68.75,100.94s-24.42,73.69-68.75,100.95C577.06,559.7,516.44,575.09,451.85,575.09Z"/><path d="M451.85,294a367.17,367.17,0,0,1,92.35,11.45c28,7.27,53,17.63,74.41,30.79,20.88,12.84,37.18,27.63,48.42,44,11.12,16.17,16.76,33.18,16.76,50.58s-5.64,34.42-16.76,50.58c-11.24,16.34-27.54,31.14-48.42,44-21.41,13.16-46.45,23.52-74.41,30.79a367.62,367.62,0,0,1-92.35,11.44A66,66,0,0,1,415.27,557c-10.41-6.76-19.58-16.69-27.27-29.52-14.89-24.87-23.44-60.1-23.44-96.65S373.11,359,388,334.15c7.69-12.83,16.86-22.76,27.27-29.51A66,66,0,0,1,451.85,294m0-15c-136.38,0-136.38,303.58,0,303.58s246.94-68,246.94-151.79S588.23,279,451.85,279Z"/><path class="cls-1" d="M451.85,296.34c-36.41,0-58.32-23.82-70.28-43.79-15.8-26.39-24.51-62.08-24.51-100.51s8.71-74.12,24.51-100.5c12-20,33.87-43.79,70.28-43.79,64.59,0,125.21,15.4,170.69,43.35,44.33,27.25,68.75,63.1,68.75,100.94s-24.42,73.69-68.75,101C577.06,280.94,516.44,296.34,451.85,296.34Z"/><path d="M451.85,15.25A367.17,367.17,0,0,1,544.2,26.7c28,7.27,53,17.63,74.41,30.79,20.88,12.84,37.18,27.63,48.42,44,11.12,16.17,16.76,33.19,16.76,50.58s-5.64,34.42-16.76,50.59c-11.24,16.34-27.54,31.13-48.42,44-21.41,13.16-46.45,23.52-74.41,30.79a367.62,367.62,0,0,1-92.35,11.45,66,66,0,0,1-36.58-10.63c-10.41-6.76-19.58-16.69-27.27-29.52-14.89-24.87-23.44-60.09-23.44-96.65S373.11,80.26,388,55.4c7.69-12.83,16.86-22.76,27.27-29.52a66,66,0,0,1,36.58-10.63m0-15c-136.38,0-136.38,303.59,0,303.59s246.94-68,246.94-151.8S588.23.25,451.85.25Z"/><rect class="cls-1" x="357.06" y="7.75" width="74.61" height="567.34"/><path d="M424.17,15.25V567.59H364.56V15.25h59.61m15-15H349.56V582.59h89.61V.25Z"/><path d="M549.22,489.72c-38.79,0-70.35-26.43-70.35-58.92s31.56-58.91,70.35-58.91,70.35,26.43,70.35,58.91S588,489.72,549.22,489.72Z"/><path d="M549.22,379.39c34.66,0,62.85,23.06,62.85,51.41s-28.19,51.42-62.85,51.42-62.85-23.07-62.85-51.42,28.2-51.41,62.85-51.41m0-15c-43,0-77.85,29.73-77.85,66.41s34.86,66.42,77.85,66.42,77.85-29.74,77.85-66.42-34.85-66.41-77.85-66.41Z"/><ellipse cx="549.22" cy="152.04" rx="70.35" ry="58.91"/><path d="M549.22,100.63c34.66,0,62.85,23.07,62.85,51.41s-28.19,51.42-62.85,51.42S486.37,180.39,486.37,152s28.2-51.41,62.85-51.41m0-15c-43,0-77.85,29.74-77.85,66.41s34.86,66.42,77.85,66.42,77.85-29.74,77.85-66.42-34.85-66.41-77.85-66.41Z"/></g></g></svg>