<svg xmlns="http://www.w3.org/2000/svg" viewBox="0 0 841.55 790.21"><defs><style>.cls-1{fill:#fff;}</style></defs><g id="Слой_2" data-name="Слой 2"><g id="Слой_1-2" data-name="Слой 1"><path class="cls-1" d="M540.17,21.7q-24,143.34-49.36,286.44-25.23,142.11-51.89,284-15.09,80.22-30.61,160.35c-2.88,14.83,2.95,29.31,17.37,35.4a30.11,30.11,0,0,0,37.46-12.28l25.74-42.13c8.19-13.4,3.37-33.58-10.77-41-14.61-7.72-32.3-3.55-41,10.76l-25.74,42.13,54.83,23.11Q493.82,625.73,520,482.78q26-142,50.63-284.19Q584.56,118.16,598,37.65c1.37-8.18,1.32-15.7-3-23.11C591.36,8.31,584.22,2.38,577.07.75c-14.49-3.3-34.14,4.4-36.9,21Z"/><path class="cls-1" d="M452,202.07a863.19,863.19,0,0,1,171.71,5.69l-8-1.07q34.58,4.69,68.71,12.11c20.21,4.43,41.24,8.59,60.43,16.49l-7.17-3c3,1.27,5.9,2.62,8.74,4.15,1.59.87,3.15,1.78,4.68,2.75,1,.66,6,4.34,1.31.69s0,.14.95,1c1.07,1,2,2.2,3.08,3.16,1.65,1.47-4.82-7.07-1.34-1.64a36,36,0,0,1,2.32,4.28l-3-7.16a34,34,0,0,1,2.32,8.34l-1.07-8a35.55,35.55,0,0,1-.06,7.92l1.07-8a36.15,36.15,0,0,1-2.05,7.44l3-7.17a39.36,39.36,0,0,1-3,5.7c-.69,1.08-3.27,4.49,0,.16s.47-.78-.27,0a60.1,60.1,0,0,1-4.47,4.27c-3.75,3.24,1.51-.67,2.25-1.61a13.83,13.83,0,0,1-2.89,2.07c-8,5.51-16.85,9.52-25.77,13.31l7.16-3c-97.63,41.11-204.3,50.45-305.54,79.2a655,655,0,0,0-89.88,32.64c-4.18,1.88-8.5,6.89-10.76,10.76a29.64,29.64,0,0,0-3.56,19.13c1.5,11.15,9.92,22.47,21.49,24.94C433.82,447.19,527.08,437.9,619.66,440a678.4,678.4,0,0,1,74.28,5.38l-8-1.07c31.74,4.36,63,11.88,92.57,24.29l-7.17-3q12.93,5.5,25.29,12.15l-6.07-47.12a160.28,160.28,0,0,1-15.66,16.67c-2.84,2.61-5.88,5.87-9.21,7.85l3.69-2.83c-.8.61-1.61,1.21-2.42,1.81q-2.43,1.8-4.93,3.51a225.36,225.36,0,0,1-40.31,21.66l7.16-3C680.29,496.48,626.84,504.4,575,511.4l8-1.07C512.36,519.76,441.2,524,370,526.32c-72,2.38-144.12,3.35-216.17,4.77L30,533.55c-15.68.31-30.74,13.57-30,30,.71,16,13.19,30.33,30,30,113-2.24,226.07-3.49,339-7.2,55.59-1.83,111.16-4.74,166.5-10.43,53.66-5.51,108.07-12.33,160.42-25.74,50.87-13,103-35.48,137-77.11,6.25-7.67,9.6-15.16,8.25-25.2-1.21-9-6.1-17.49-14.33-21.92-53.28-28.68-112.39-40.47-172.31-44.41-57-3.74-114.23-.58-171.33-.9-32.31-.19-64.65-1.49-96.7-5.7l8,1.07c-12.14-1.64-24.21-3.69-36.18-6.25l7.16,54.83c3.76-1.69,7.52-3.33,11.31-4.93l-7.17,3c103.68-43.48,217.4-51.24,324.08-84.63,13.42-4.21,26.73-8.82,39.83-13.94,13.69-5.36,27.85-10.66,40.54-18.19,27.27-16.17,49.54-45.68,39.46-79-9-29.75-37.77-45.7-65.69-54.14S690.81,158.39,662,153.45C592.65,141.59,522.22,137.37,452,142.07c-15.62,1.05-30.76,13.05-30,30,.69,15.36,13.23,31.12,30,30Z"/></g></g></svg>